# xmcd
#
# Track frame offsets: 
#        150
#        12290
#        31960
#        52570
#        66992
#        87662
#        107635
#        122382
#        132957
#        152020
#        160837
#        178932
#        197245
#        211955
#        225145
#        237952
#
# Disc length: 3412 seconds
#
# Revision: 0
# Processed by: cddbd v1.5.2PL0 Copyright (c) Steve Scherf et al.
# Submitted via: ExactAudioCopyFreeDBPlugin 1.0
#
DISCID=c90d5210
DTITLE=Various Artist - 16 Baladas 3
DYEAR=1990
DGENRE=Ballad
TTITLE0=Harry Nilsson - Everybody's talkin
TTITLE1=The rockorchestra - I will always love you
TTITLE2=The rockorchestra - Nights in white saten
TTITLE3=The tremeloes - Silence is golden
TTITLE4=The rockorchestra - Everything I do
TTITLE5=The rockorchestra - You're so vain
TTITLE6=The rockorchestra - Morning has broken
TTITLE7=Everly Brothers - All I have to do is dream
TTITLE8=The rockorchestra - Rocket man
TTITLE9=The rockorchestra - Yesterday
TTITLE10=The rockorchestra - Ebony and ivory
TTITLE11=Timi Yuro - You're lost that lovin' feelin
TTITLE12=The rockorchestra - Never my love
TTITLE13=Percy Sledge - When a man loves a woman
TTITLE14=The rockorchestra - Maybe tomorrow
TTITLE15=The marmalade - Reflections of my life
EXTD=
EXTT0=
EXTT1=
EXTT2=
EXTT3=
EXTT4=
EXTT5=
EXTT6=
EXTT7=
EXTT8=
EXTT9=
EXTT10=
EXTT11=
EXTT12=
EXTT13=
EXTT14=
EXTT15=
PLAYORDER=
